<mxfile host="app.diagrams.net" modified="2023-05-12T06:40:37.839Z" agent="Mozilla/5.0 (Macintosh; Intel Mac OS X 10_15_7) AppleWebKit/537.36 (KHTML, like Gecko) Chrome/112.0.0.0 Safari/537.36" etag="QNvCK2u-GlxH-RfU1tLI" version="21.2.9" type="github">
  <diagram name="第 1 页" id="uwHExd9-VC8fvrQW-kaj">
    <mxGraphModel dx="954" dy="615" grid="1" gridSize="10" guides="1" tooltips="1" connect="1" arrows="1" fold="1" page="1" pageScale="1" pageWidth="827" pageHeight="1169" math="0" shadow="0">
      <root>
        <mxCell id="0" />
        <mxCell id="1" parent="0" />
        <mxCell id="OKMWDXngPsk2a8uxrAY7-10" style="rounded=0;orthogonalLoop=1;jettySize=auto;html=1;exitX=1;exitY=0.3333333333333333;exitDx=0;exitDy=0;exitPerimeter=0;entryX=0;entryY=0.5;entryDx=0;entryDy=0;" parent="1" source="OKMWDXngPsk2a8uxrAY7-6" target="OKMWDXngPsk2a8uxrAY7-3" edge="1">
          <mxGeometry relative="1" as="geometry" />
        </mxCell>
        <mxCell id="OKMWDXngPsk2a8uxrAY7-11" style="rounded=0;orthogonalLoop=1;jettySize=auto;html=1;entryX=0;entryY=0.5;entryDx=0;entryDy=0;" parent="1" target="OKMWDXngPsk2a8uxrAY7-4" edge="1">
          <mxGeometry relative="1" as="geometry">
            <mxPoint x="110" y="278" as="sourcePoint" />
          </mxGeometry>
        </mxCell>
        <mxCell id="OKMWDXngPsk2a8uxrAY7-12" style="rounded=0;orthogonalLoop=1;jettySize=auto;html=1;entryX=0;entryY=0.5;entryDx=0;entryDy=0;exitX=1;exitY=0.3333333333333333;exitDx=0;exitDy=0;exitPerimeter=0;" parent="1" target="OKMWDXngPsk2a8uxrAY7-5" edge="1" source="OKMWDXngPsk2a8uxrAY7-6">
          <mxGeometry relative="1" as="geometry">
            <mxPoint x="120" y="280" as="sourcePoint" />
          </mxGeometry>
        </mxCell>
        <mxCell id="rzXCr8yJIdhbhl5o0lIR-2" style="rounded=0;orthogonalLoop=1;jettySize=auto;html=1;exitX=1;exitY=0.3333333333333333;exitDx=0;exitDy=0;exitPerimeter=0;entryX=0;entryY=0.5;entryDx=0;entryDy=0;" edge="1" parent="1" source="OKMWDXngPsk2a8uxrAY7-6" target="rzXCr8yJIdhbhl5o0lIR-1">
          <mxGeometry relative="1" as="geometry" />
        </mxCell>
        <mxCell id="OKMWDXngPsk2a8uxrAY7-6" value="买家" style="shape=umlActor;verticalLabelPosition=bottom;verticalAlign=top;html=1;outlineConnect=0;" parent="1" vertex="1">
          <mxGeometry x="80" y="257.64" width="30" height="60" as="geometry" />
        </mxCell>
        <mxCell id="OKMWDXngPsk2a8uxrAY7-3" value="购物车商品添加" style="ellipse;whiteSpace=wrap;html=1;container=0;" parent="1" vertex="1">
          <mxGeometry x="240" y="140" width="120" height="35.29" as="geometry" />
        </mxCell>
        <mxCell id="OKMWDXngPsk2a8uxrAY7-4" value="购物车商品管理" style="ellipse;whiteSpace=wrap;html=1;container=0;" parent="1" vertex="1">
          <mxGeometry x="240" y="222.35" width="120" height="35.29" as="geometry" />
        </mxCell>
        <mxCell id="OKMWDXngPsk2a8uxrAY7-5" value="购物车商品信息展示" style="ellipse;whiteSpace=wrap;html=1;container=0;" parent="1" vertex="1">
          <mxGeometry x="240" y="300" width="120" height="35.29" as="geometry" />
        </mxCell>
        <mxCell id="rzXCr8yJIdhbhl5o0lIR-1" value="购物车商品结算" style="ellipse;whiteSpace=wrap;html=1;container=0;" vertex="1" parent="1">
          <mxGeometry x="240" y="360" width="120" height="35.29" as="geometry" />
        </mxCell>
      </root>
    </mxGraphModel>
  </diagram>
</mxfile>
